# Blender 3.5.1
# www.blender.org
mtllib paredecircular.mtl
o Cube
v 0.490022 3.620242 -3.620242
v 0.490022 -3.620242 -3.620242
v 0.490022 3.620242 3.620242
v 0.490022 -3.620242 3.620242
v -0.490022 3.620242 -3.620242
v -0.490022 -3.620242 -3.620242
v -0.490022 3.620242 3.620242
v -0.490022 -3.620242 3.620242
v -0.490022 -2.538752 1.073859
v -0.490022 -2.894938 1.008728
v -0.490022 -2.748252 1.053225
v -0.490022 -2.329253 1.053225
v -0.490022 -3.135356 0.892881
v -0.490022 -1.942148 0.892881
v -0.490022 -2.949700 0.992116
v -0.490022 -2.127804 0.992116
v -0.490022 -3.431633 0.596604
v -0.490022 -1.645871 0.596604
v -0.490022 -3.591977 0.209499
v -0.490022 -1.485527 0.209499
v -0.490022 -3.530869 0.410948
v -0.490022 -1.546636 0.410948
v -0.490022 -3.612611 0.000000
v -0.490022 -3.298085 0.759333
v -0.490022 -1.779419 0.759333
v -0.490022 -3.591977 -0.209499
v -0.490022 -1.485527 -0.209499
v -0.490022 -3.431633 -0.596604
v -0.490022 -1.645871 -0.596604
v -0.490022 -3.530869 -0.410948
v -0.490022 -1.546636 -0.410948
v -0.490022 -3.135356 -0.892881
v -0.490022 -1.942148 -0.892881
v -0.490022 -2.538752 -1.073859
v -0.490022 -2.748252 -1.053225
v -0.490022 -2.803014 -1.036613
v -0.490022 -2.329253 -1.053225
v -0.490022 -2.949700 -0.992116
v -0.490022 -2.127804 -0.992116
v -0.490022 -3.298085 -0.759333
v -0.490022 -1.779419 -0.759333
v -0.490022 -1.464893 0.000000
v 0.490022 -2.538752 1.073859
v 0.490022 -2.803014 1.036613
v 0.490022 -2.748252 1.053225
v 0.490022 -2.329253 1.053225
v 0.490022 -3.135356 0.892881
v 0.490022 -2.127804 0.992116
v 0.490022 -2.949700 0.992116
v 0.490022 -1.942148 0.892881
v 0.490022 -3.431633 0.596604
v 0.490022 -1.779419 0.759333
v 0.490022 -1.485527 0.209499
v 0.490022 -3.591977 0.209499
v 0.490022 -1.546636 0.410948
v 0.490022 -3.530869 0.410948
v 0.490022 -1.645871 0.596604
v 0.490022 -3.298085 0.759333
v 0.490022 -3.591977 -0.209499
v 0.490022 -1.485527 -0.209499
v 0.490022 -3.431633 -0.596604
v 0.490022 -1.645871 -0.596604
v 0.490022 -3.530869 -0.410948
v 0.490022 -1.546636 -0.410948
v 0.490022 -3.135356 -0.892881
v 0.490022 -1.942148 -0.892881
v 0.490022 -2.538752 -1.073859
v 0.490022 -2.329253 -1.053225
v 0.490022 -2.748252 -1.053225
v 0.490022 -2.894938 -1.008728
v 0.490022 -2.127804 -0.992116
v 0.490022 -2.949700 -0.992116
v 0.490022 -1.779419 -0.759333
v 0.490022 -3.612611 0.000000
v 0.490022 -3.298085 -0.759333
v 0.490022 -1.464893 0.000000
vn -0.0000 1.0000 -0.0000
vn -0.0000 -0.0000 1.0000
vn -1.0000 -0.0000 -0.0000
vn -0.0000 -1.0000 -0.0000
vn 1.0000 -0.0000 -0.0000
vn -0.0000 -0.0000 -1.0000
vn -0.0000 0.0980 0.9952
vn -0.0000 0.2903 0.9569
vn -0.0000 0.4714 0.8819
vn -0.0000 0.6344 0.7730
vn -0.0000 0.7730 0.6344
vn -0.0000 0.8819 0.4714
vn -0.0000 0.9569 0.2903
vn -0.0000 0.9952 0.0980
vn -0.0000 0.9952 -0.0980
vn -0.0000 0.9569 -0.2903
vn -0.0000 0.8819 -0.4714
vn -0.0000 0.7730 -0.6344
vn -0.0000 0.6344 -0.7730
vn -0.0000 0.4714 -0.8819
vn -0.0000 0.2903 -0.9569
vn -0.0000 0.0980 -0.9952
vn -0.0000 -0.0980 -0.9952
vn -0.0000 -0.2903 -0.9569
vn -0.0000 -0.4714 -0.8819
vn -0.0000 -0.6344 -0.7730
vn -0.0000 -0.7730 -0.6344
vn -0.0000 -0.8819 -0.4714
vn -0.0000 -0.9569 -0.2903
vn -0.0000 -0.9952 -0.0980
vn -0.0000 -0.9952 0.0980
vn -0.0000 -0.9569 0.2903
vn -0.0000 -0.8819 0.4714
vn -0.0000 -0.7730 0.6344
vn -0.0000 -0.6344 0.7730
vn -0.0000 -0.4714 0.8819
vn -0.0000 -0.2903 0.9569
vn -0.0000 -0.0980 0.9952
vt 0.625000 0.500000
vt 0.375000 0.500000
vt 0.625000 0.750000
vt 0.375000 0.750000
vt 0.875000 0.500000
vt 0.625000 0.250000
vt 0.125000 0.500000
vt 0.375000 0.250000
vt 0.875000 0.750000
vt 0.625000 1.000000
vt 0.625000 0.000000
vt 0.375000 1.000000
vt 0.375000 0.000000
vt 0.125000 0.750000
vt 0.412342 0.087922
vt 0.500000 0.635920
vt 0.400043 0.090171
vt 0.554005 0.635920
vt 0.405108 0.088634
vt 0.531250 0.635920
vt 0.419575 0.088634
vt 0.468750 0.635920
vt 0.391742 0.094171
vt 0.593750 0.635920
vt 0.432941 0.094171
vt 0.406250 0.635920
vt 0.398153 0.090744
vt 0.562500 0.635920
vt 0.426531 0.090744
vt 0.437500 0.635920
vt 0.381512 0.104400
vt 0.656250 0.635920
vt 0.443171 0.104400
vt 0.343750 0.635920
vt 0.375976 0.117766
vt 0.718750 0.635920
vt 0.448708 0.117766
vt 0.281250 0.635920
vt 0.378086 0.110811
vt 0.687500 0.635920
vt 0.446598 0.110811
vt 0.312500 0.635920
vt 0.375263 0.125000
vt 0.750000 0.635920
vt 0.386123 0.098782
vt 0.625000 0.635920
vt 0.438560 0.098782
vt 0.375000 0.635920
vt 0.375976 0.132234
vt 0.781250 0.635920
vt 0.448708 0.132234
vt 0.218750 0.635920
vt 0.381512 0.145600
vt 0.843750 0.635920
vt 0.443171 0.145600
vt 0.156250 0.635920
vt 0.378086 0.139189
vt 0.812500 0.635920
vt 0.446598 0.139189
vt 0.187500 0.635920
vt 0.391742 0.155829
vt 0.906250 0.635920
vt 0.432941 0.155829
vt 0.093750 0.635920
vt 0.412342 0.162078
vt 1.000000 0.635920
vt 0.000000 0.635920
vt 0.405108 0.161366
vt 0.968750 0.635920
vt 0.403217 0.160792
vt 0.960255 0.635920
vt 0.419575 0.161366
vt 0.031250 0.635920
vt 0.398153 0.159256
vt 0.937500 0.635920
vt 0.426531 0.159256
vt 0.062500 0.635920
vt 0.386123 0.151218
vt 0.875000 0.635920
vt 0.438560 0.151218
vt 0.125000 0.635920
vt 0.449420 0.125000
vt 0.250000 0.635920
vt 0.412342 0.662078
vt 0.500000 0.864080
vt 0.403217 0.660792
vt 0.539745 0.864080
vt 0.405108 0.661366
vt 0.531250 0.864080
vt 0.419575 0.661366
vt 0.468750 0.864080
vt 0.391742 0.655829
vt 0.593750 0.864080
vt 0.426531 0.659256
vt 0.437500 0.864080
vt 0.398153 0.659256
vt 0.562500 0.864080
vt 0.432941 0.655829
vt 0.406250 0.864080
vt 0.381512 0.645600
vt 0.656250 0.864080
vt 0.438560 0.651218
vt 0.375000 0.864080
vt 0.448708 0.632234
vt 0.281250 0.864080
vt 0.375976 0.632234
vt 0.718750 0.864080
vt 0.446598 0.639189
vt 0.312500 0.864080
vt 0.378086 0.639189
vt 0.687500 0.864080
vt 0.443171 0.645600
vt 0.343750 0.864080
vt 0.386123 0.651218
vt 0.625000 0.864080
vt 0.375976 0.617766
vt 0.781250 0.864080
vt 0.448708 0.617766
vt 0.218750 0.864080
vt 0.381512 0.604400
vt 0.843750 0.864080
vt 0.443171 0.604400
vt 0.156250 0.864080
vt 0.378086 0.610811
vt 0.812500 0.864080
vt 0.446598 0.610811
vt 0.187500 0.864080
vt 0.391742 0.594170
vt 0.906250 0.864080
vt 0.432941 0.594171
vt 0.093750 0.864080
vt 0.412342 0.587922
vt 1.000000 0.864080
vt 0.000000 0.864080
vt 0.419575 0.588634
vt 0.031250 0.864080
vt 0.405108 0.588634
vt 0.968750 0.864080
vt 0.400043 0.590171
vt 0.945995 0.864080
vt 0.426531 0.590744
vt 0.062500 0.864080
vt 0.398153 0.590744
vt 0.937500 0.864080
vt 0.438560 0.598782
vt 0.125000 0.864080
vt 0.375263 0.625000
vt 0.750000 0.864080
vt 0.386123 0.598782
vt 0.875000 0.864080
vt 0.449420 0.625000
vt 0.250000 0.864080
s 0
usemtl Material
f 1/1/1 5/5/1 7/9/1 3/3/1
f 4/4/2 3/3/2 7/10/2 8/12/2
f 10/17/3 8/13/3 7/11/3 5/6/3 6/8/3 36/70/3 35/68/3 34/65/3 37/72/3 39/76/3 33/63/3 41/80/3 29/55/3 31/59/3 27/51/3 42/82/3 20/37/3 22/41/3 18/33/3 25/47/3 14/25/3 16/29/3 12/21/3 9/15/3 11/19/3
f 6/8/3 8/13/3 10/17/3 15/27/3 13/23/3 24/45/3 17/31/3 21/39/3 19/35/3 23/43/3 26/49/3 30/57/3 28/53/3 40/78/3 32/61/3 38/74/3 36/70/3
f 6/7/4 2/2/4 4/4/4 8/14/4
f 44/86/5 4/4/5 2/2/5 70/139/5 72/143/5 65/128/5 75/149/5 61/120/5 63/124/5 59/116/5 74/147/5 54/106/5 56/110/5 51/100/5 58/114/5 47/92/5 49/96/5
f 69/137/5 70/139/5 2/2/5 1/1/5 3/3/5 4/4/5 44/86/5 45/88/5 43/84/5 46/90/5 48/94/5 50/98/5 52/102/5 57/112/5 55/108/5 53/104/5 76/151/5 60/118/5 64/126/5 62/122/5 73/145/5 66/130/5 71/141/5 68/135/5 67/132/5
f 6/8/6 5/6/6 1/1/6 2/2/6
usemtl 
f 34/66/7 35/69/7 69/138/7 67/133/7
f 35/69/8 36/71/8 38/75/8 72/144/8 70/140/8 69/138/8
f 38/75/9 32/62/9 65/129/9 72/144/9
f 32/62/10 40/79/10 75/150/10 65/129/10
f 40/79/11 28/54/11 61/121/11 75/150/11
f 28/54/12 30/58/12 63/125/12 61/121/12
f 30/58/13 26/50/13 59/117/13 63/125/13
f 26/50/14 23/44/14 74/148/14 59/117/14
f 23/44/15 19/36/15 54/107/15 74/148/15
f 19/36/16 21/40/16 56/111/16 54/107/16
f 21/40/17 17/32/17 51/101/17 56/111/17
f 17/32/18 24/46/18 58/115/18 51/101/18
f 13/24/19 47/93/19 58/115/19 24/46/19
f 15/28/20 49/97/20 47/93/20 13/24/20
f 10/18/21 11/20/21 45/89/21 44/87/21 49/97/21 15/28/21
f 9/16/22 43/85/22 45/89/22 11/20/22
f 12/22/23 46/91/23 43/85/23 9/16/23
f 16/30/24 48/95/24 46/91/24 12/22/24
f 14/26/25 50/99/25 48/95/25 16/30/25
f 25/48/26 52/103/26 50/99/26 14/26/26
f 18/34/27 57/113/27 52/103/27 25/48/27
f 22/42/28 55/109/28 57/113/28 18/34/28
f 20/38/29 53/105/29 55/109/29 22/42/29
f 42/83/30 76/152/30 53/105/30 20/38/30
f 27/52/31 60/119/31 76/152/31 42/83/31
f 31/60/32 64/127/32 60/119/32 27/52/32
f 29/56/33 62/123/33 64/127/33 31/60/33
f 41/81/34 73/146/34 62/123/34 29/56/34
f 41/81/35 33/64/35 66/131/35 73/146/35
f 33/64/36 39/77/36 71/142/36 66/131/36
f 39/77/37 37/73/37 68/136/37 71/142/37
f 37/73/38 34/67/38 67/134/38 68/136/38
