# Blender 3.5.1
# www.blender.org
mtllib paredecubo.mtl
o Cube
v 0.490022 3.620242 -3.620242
v 0.490022 -3.620242 -3.620242
v 0.490022 3.620242 3.620242
v 0.490022 -3.620242 3.620242
v -0.490022 3.620242 -3.620242
v -0.490022 -3.620242 -3.620242
v -0.490022 3.620242 3.620242
v -0.490022 -3.620242 3.620242
v -0.490022 -1.664917 1.000000
v -0.490022 -3.620242 1.000000
v -0.490022 -1.664917 -1.000000
v -0.490022 -3.620242 -1.000000
v 0.490022 -3.620242 1.000000
v 0.490022 -3.620242 -1.000000
v 0.490022 -1.664917 1.000000
v 0.490022 -1.664917 -1.000000
vn -0.0000 1.0000 -0.0000
vn -0.0000 -0.0000 1.0000
vn -1.0000 -0.0000 -0.0000
vn -0.0000 -1.0000 -0.0000
vn 1.0000 -0.0000 -0.0000
vn -0.0000 -0.0000 -1.0000
vn -0.9822 -0.1329 0.1329
vn 0.9822 -0.1329 0.1329
vn -0.9822 -0.1329 -0.1329
vn 0.9822 -0.1329 -0.1329
vt 0.625000 0.500000
vt 0.375000 0.500000
vt 0.625000 0.750000
vt 0.375000 0.750000
vt 0.875000 0.500000
vt 0.625000 0.250000
vt 0.125000 0.500000
vt 0.375000 0.250000
vt 0.875000 0.750000
vt 0.625000 1.000000
vt 0.625000 0.000000
vt 0.375000 1.000000
vt 0.375000 0.000000
vt 0.125000 0.750000
vt 0.442514 0.090472
vt 0.625000 0.936253
vt 0.811253 0.750000
vt 0.375000 0.090472
vt 0.125000 0.659528
vt 0.380584 0.936253
vt 0.442514 0.159528
vt 0.625000 0.313747
vt 0.811253 0.500000
vt 0.375000 0.159528
vt 0.125000 0.590472
vt 0.380584 0.313747
vt 0.375000 0.659528
vt 0.380584 0.813747
vt 0.375000 0.590472
vt 0.380584 0.436253
vt 0.442514 0.659528
vt 0.625000 0.813747
vt 0.688747 0.750000
vt 0.442514 0.590472
vt 0.625000 0.436253
vt 0.688747 0.500000
s 0
usemtl Material
f 1/1/1 5/5/1 7/9/1 3/3/1
f 4/4/2 3/3/2 7/10/2 8/12/2
f 8/13/3 7/11/3 5/6/3 6/8/3 12/24/3 11/21/3 9/15/3 10/18/3
f 4/4/4 8/14/4 10/19/4 13/27/4
f 12/25/4 6/7/4 2/2/4 14/29/4
f 2/2/5 1/1/5 3/3/5 4/4/5 13/27/5 15/31/5 16/34/5 14/29/5
f 6/8/6 5/6/6 1/1/6 2/2/6
s 1
usemtl 
f 11/22/7 12/26/7 14/30/8 16/35/8
f 10/20/9 9/16/9 15/32/10 13/28/10
f 11/23/7 16/36/8 15/33/10 9/17/9
