# Blender 3.5.1
# www.blender.org
mtllib parederetangulo.mtl
o Cube
v 0.490022 3.620242 -3.620242
v 0.490022 -3.620242 -3.620242
v 0.490022 3.620242 3.620242
v 0.490022 -3.620242 3.620242
v -0.490022 3.620242 -3.620242
v -0.490022 -3.620242 -3.620242
v -0.490022 3.620242 3.620242
v -0.490022 -3.620242 3.620242
v -0.490022 -1.664917 1.000000
v -0.490022 -3.620242 1.000000
v -0.490022 -1.664917 -1.000000
v -0.490022 -3.620242 -1.000000
v 0.490022 -3.620242 1.000000
v 0.490022 -3.620242 -1.000000
v 0.490022 -1.664917 1.000000
v 0.490022 -1.664917 -1.000000
v -0.490022 -0.000831 -1.000000
v -0.490022 -2.675472 -1.000000
v -0.490022 -3.590901 -1.000000
v -0.490022 -3.590901 1.000000
v -0.490022 -0.000831 1.000000
v 0.490022 -0.000831 1.000000
v 0.490022 -3.590901 1.000000
v 0.490022 -2.675472 1.000000
v 0.490022 -3.590901 -1.000000
v 0.490022 -0.000831 -1.000000
v -0.223397 -2.196871 -1.000000
v 0.223397 -2.196871 1.000000
vn -0.0000 1.0000 -0.0000
vn -0.0000 -0.0000 1.0000
vn -1.0000 -0.0000 -0.0000
vn -0.0000 -1.0000 -0.0000
vn 1.0000 -0.0000 -0.0000
vn -0.0000 -0.0000 -1.0000
vn -0.9910 -0.0000 0.1341
vn -0.9822 -0.1329 0.1329
vn 0.9822 -0.1329 0.1329
vn 0.9910 -0.0000 0.1341
vn 0.9822 -0.1329 -0.1329
vn -0.9822 -0.1329 -0.1329
vn -0.9910 -0.0000 -0.1341
vn 0.9910 -0.0000 -0.1341
vt 0.625000 0.500000
vt 0.375000 0.500000
vt 0.625000 0.750000
vt 0.375000 0.750000
vt 0.875000 0.500000
vt 0.625000 0.250000
vt 0.125000 0.500000
vt 0.375000 0.250000
vt 0.875000 0.750000
vt 0.625000 1.000000
vt 0.625000 0.000000
vt 0.375000 1.000000
vt 0.375000 0.000000
vt 0.125000 0.750000
vt 0.442514 0.090472
vt 0.625000 0.936253
vt 0.509119 0.936253
vt 0.375000 0.090472
vt 0.125000 0.659528
vt 0.380584 0.936253
vt 0.442514 0.159528
vt 0.625000 0.313747
vt 0.509119 0.313747
vt 0.375000 0.159528
vt 0.125000 0.590472
vt 0.380584 0.313747
vt 0.375000 0.659528
vt 0.380584 0.813747
vt 0.375000 0.590472
vt 0.380584 0.436253
vt 0.442514 0.659528
vt 0.625000 0.813747
vt 0.509119 0.813747
vt 0.442514 0.590472
vt 0.625000 0.436253
vt 0.509119 0.436253
vt 0.499971 0.159528
vt 0.625000 0.313747
vt 0.811253 0.500000
vt 0.407621 0.159528
vt 0.498681 0.313747
vt 0.376013 0.159528
vt 0.384252 0.313747
vt 0.376013 0.090472
vt 0.384252 0.936253
vt 0.499971 0.090472
vt 0.625000 0.936253
vt 0.811253 0.750000
vt 0.499971 0.659528
vt 0.625000 0.813747
vt 0.688747 0.750000
vt 0.376013 0.659528
vt 0.384252 0.813747
vt 0.407621 0.659528
vt 0.498681 0.813747
vt 0.376013 0.590472
vt 0.384252 0.436253
vt 0.499971 0.590472
vt 0.625000 0.436253
vt 0.688747 0.500000
vt 0.558506 0.347075
vt 0.558506 0.847075
s 0
usemtl Material
f 1/1/1 5/5/1 7/9/1 3/3/1
f 4/4/2 3/3/2 7/10/2 8/12/2
f 7/11/3 5/6/3 6/8/3 12/24/3 19/42/3 18/40/3 11/21/3 17/37/3 21/46/3 9/15/3 20/44/3 10/18/3 8/13/3
f 4/4/4 8/14/4 10/19/4 13/27/4
f 12/25/4 6/7/4 2/2/4 14/29/4
f 14/29/5 2/2/5 1/1/5 3/3/5 4/4/5 13/27/5 23/52/5 24/54/5 15/31/5 22/49/5 26/58/5 16/34/5 25/56/5
f 6/8/6 5/6/6 1/1/6 2/2/6
s 1
usemtl 
f 19/43/7 12/26/8 14/30/9 25/57/10
f 11/22/7 18/41/7 27/61/2
f 25/57/10 16/35/10 11/22/7 27/61/2 18/41/7 19/43/7
f 13/28/11 10/20/12 20/45/13 23/53/14
f 20/45/13 9/16/13 15/32/14 28/62/6 24/55/14 23/53/14
f 24/55/14 28/62/6 15/32/14
usemtl 
f 16/36/10 26/59/9 17/38/8 11/23/7
f 21/47/12 22/50/11 15/33/14 9/17/13
f 22/51/11 21/48/12 17/39/8 26/60/9
